<svg id="Layer_1" data-name="Layer 1" xmlns="http://www.w3.org/2000/svg" viewBox="0 0 512 512"><defs><style>.cls-1{fill:#707070;}</style></defs><title>browser-4-handdrawn</title><path class="cls-1" d="M416.77,182.42a49,49,0,0,0-13-1.2c-12.61.06-24.63.24-33.79.51-7.67.23-21.81.24-33,.36l1.11-.19c-3.76-.24-5.74-.61-11.65-.69l-8.93-.08H313a42.17,42.17,0,0,0-7.1.67,39.22,39.22,0,0,0-23.75,14.49,43.34,43.34,0,0,0-8.94,22.23c-.39,5.27-.14,7.67-.17,11.19,0,3.33.06,6.7.09,10l.81-3.63c.14,37.51,1,22.35,1.71,20.81-.07,14.36-.14,27.47-.2,40.31,0,20.05-.06,41.36.44,58.84,0,3.92,0,13.76,0,20l.36,17.21.45-10.09c.33,12,.74,18.16,1.3,7,.13-2.56.36.34.54-.21.48-1.45,1-6.47,1.1-30,.06-12.27,1.13-26.62,1.64-22.31.74,6.27,1.44-11.84,1.4-35.8,0-13.29,0-26.69,0-39.93,0-2.88.18-5.93.3-7.77.21-3.33.42-11.37.57-20.38.15-4.64,0-8.94.35-14.06a33,33,0,0,1,4.3-12.89,34,34,0,0,1,5.32-6.78,25,25,0,0,1,9.36-6.23,22.54,22.54,0,0,1,5.66-1.41,27.61,27.61,0,0,1,4-.26l4.66.12c-3.52.22-7.83.34-11.57,1.67a27,27,0,0,0-9.43,5.47c-1.89,1.69-1.22,1.56-1.72,2.24a26.76,26.76,0,0,1,12.33-6.75c4.73-1.15,9.32-.58,13.77-.73l9-.15,56.08.12,14,0c4.59.13,9.43-.43,14.25,1,9.57,2.53,17,10.69,19.42,20.1a29.9,29.9,0,0,1,.81,4.65,1.64,1.64,0,0,1-.17-.45A28.94,28.94,0,0,0,423,199.87a26.2,26.2,0,0,0-10.45-4.81c-3.85-.83-7.66-.48-11.34-.55l-44.76.07-27.53-.07c-9.12,0-14.87-.09-18.27.29-3.34.55-3.94,1.06-2.72,1.15-10,2.13-16.09,8.71-19.31,16a31.34,31.34,0,0,0-2.1,8.08c-.24,2.85-.19,5.67-.21,8.51-.06,26.21-.37,49.55-.75,72.57,0,7.77-.08,18.24-.13,27.48-.06,14.39-.12,29-.18,43.14-.15,22.58.12,31.35.82,27,.51-3.15,1-4.84,1.63-7.51,0-10.87.32-18,.83-15.22.07-26.61.14-52.5.21-78.38l-.09,1.66-.18-11.65V228.22c0-3.35-.16-6.61.39-9.63a27,27,0,0,1,3.06-8.77,26.2,26.2,0,0,1,6.3-7.46,22.51,22.51,0,0,1,11.57-5.06c2.31-.24,2.87-.07,2.18.1-2.92.53,12.36.65,22.92.8l43.22.51,22.29.19c3.75.09,7.62-.13,10.57.45a21.79,21.79,0,0,1,8.77,3.78,24.53,24.53,0,0,1,8.82,12.66,28.4,28.4,0,0,1,1,8l0,9.17c-.1,12.2-.2,24.28-.3,35.73,0,4.42,0,10.18,0,15.33,0,21.1.36,41.21.15,63.07,0,2.83.13,9.63.25,11.24a49.08,49.08,0,0,0,.76,5.62c0,4.17.07,9.11.12,15l.24-4.76c0,6.1-.08,11.74-.11,17.14,0,2.7,0,5.33,0,7.93a28.16,28.16,0,0,1-.8,7c-2.09,8.78-9,16.7-19,18.46a12.1,12.1,0,0,1-1.72-.15c-6.44.22-13.82.09-24.26.16l5.43.12c-.33.32-3,.61,0,.82,2.35.13,11.71.34,18.14.24,6.64-.47,9.08-2.42,10.91-3a20.29,20.29,0,0,0,5.2-3.71,27.06,27.06,0,0,0,5.63-7.78,31.52,31.52,0,0,0,2.43-7c.38-1.54.53-2.31.66-2.67.29-.72.51.26.79-.18s.34.5.58.92a29.68,29.68,0,0,1-3.38,12c4.08-7.09,4-13.49,4.07-20l-.33,1.16c0-3.06,0-7.67,0-8.91L436,359.44c.55-9.63,1.24,11.34,1.3,27.59l0,7.72c0,2.61.08,5-.13,8.11A32.59,32.59,0,0,1,431,419.3a30.35,30.35,0,0,1-14.27,10.58,29.25,29.25,0,0,1-8.9,1.6l-7.9,0-26.16.11,20.86.11,10.43.06a47.47,47.47,0,0,0,5.74-.21,30.74,30.74,0,0,0,6-1.36l0,.15a29.23,29.23,0,0,1-8,1.59c-2.8.17-4.76.07-7.17.1-9.1,0-15.85,0-21.52.33-5.21.26-13.77.3-25.48.25l-23.37-.12L320,432.6l-4.9.11-2.2.08-2.42,0c-4.6-.34-.83.49-.83.79a32.14,32.14,0,0,1-19.6-9.72,34.75,34.75,0,0,1-9.53-24,35.91,35.91,0,0,0,5.78,22.87,40.47,40.47,0,0,1-3.57-5.29,38.35,38.35,0,0,0,7,9.6,46.61,46.61,0,0,0,5.17,4.45,25.15,25.15,0,0,0,5,3,28.06,28.06,0,0,0,5.23,1.84,35.79,35.79,0,0,1-16.09-7.9c6,6.25,16.5,9.2,11.4,8-1.93-.61.9,1,5.27,2.11a40.24,40.24,0,0,0,7.08,1l4,.33c1.55.17-1.61.38-.75.57a27.4,27.4,0,0,0,6.54.64c10,.1,14.67.81,30.4.3l7.41,0,37.91.14,9.74-.07a37.85,37.85,0,0,0,14.26-3.14,40.8,40.8,0,0,0,20.34-19.58A43.28,43.28,0,0,0,447,400.89c0-4.39,0-8.88,0-13.4,0-8.83,0-17.8,0-26.47.08-20.52.17-40.81.25-61.34,0-23.69,0-47.52,0-71.29,0-1.14,0-2.34,0-3.54V223l-.11-2.64a46.31,46.31,0,0,0-1.56-9.47,41.67,41.67,0,0,0-15.42-22.27A39.38,39.38,0,0,0,416.77,182.42Zm-5.59,255.35c-1.5.14-3.51.24-4.63.24H396L382,438l-16.68-.08-10,.1-1.28-.2,30.6-.16,15.3-.08,7.8-.06a36.62,36.62,0,0,0,10.52-1.81c1.33-.46,2.72-.86,4-1.46A32.21,32.21,0,0,1,411.18,437.77Zm23.09-149.7c0-6.6,0-12.18,0-17.77l0-.41c0,2.7-.06,5.4-.15,13.25L434,266l.42-21.16C434.7,253,434.66,270.67,434.27,288.07Zm-15,113.79-.11-26.48c0-9.8.07-19.8.11-29.48,0-14.89.2-16.82.6-9.69.12,2.14.31.39.46.41,0-5.12,0-12.07,0-15l-.61-14.58.66-44.24c0-2.28.1-4.82.17-5.76.72-9.56,1.64,13.81,1.63,38.19.06,26.87.13,54,.19,80.63,0,11.19,0,17.2-.34,19.64l-.54,4.15a14.52,14.52,0,0,1-.71,2.35,12.68,12.68,0,0,1-2,3.46C418.52,405.77,419.16,403.72,419.26,401.86Zm3.65-187.48c-.75-.77-2.42-3.91-5.66-6.35a17,17,0,0,0-5.49-2.86,17.84,17.84,0,0,0-3-.6l-1.49-.07h-2.19c-9.87.1-15.51-.05-19.39-.37-4.06-.34-10.39-.66-17.72-.94-3-.11-13.77-.18-16.62-.11-9.49.25-19,.28-28.09.25l-6.72,0-3.28,0-2.3.11a17.54,17.54,0,0,0-7.81,2.93,19.29,19.29,0,0,1,6-3.72,23.25,23.25,0,0,1,3.16-.9c1-.27,2.68-.39,4.05-.59l34.21,0c15.86-.15,26.4.12,39.28.26l14.62.14a30.07,30.07,0,0,1,6.26.42,18.4,18.4,0,0,1,5.31,1.95c6.83,3.77,11.33,11.46,10.84,20.63-.14,1.7-.38,5.35-.63,7.38-.12.95-.28-.16-.39-2.2l-.24-5.48a24.36,24.36,0,0,0-.55-4.69A14,14,0,0,0,422.91,214.38ZM350.82,415.21l-3.94-.1,3.93.45-35.06.23-3,0a12.24,12.24,0,0,1-1.76-.19,10,10,0,0,1-2.9-.91c-4.37-2.33-4.6-4.27-3.46-3.41a24.86,24.86,0,0,0,3.4,1.61,12.07,12.07,0,0,0,2.82.66,9,9,0,0,0,1.69.08c.15,0,.85,0,1.57,0l2.11,0c24.49-.48,50.72-.25,76-.36h10.17l4.89,0a13,13,0,0,0,2.17-.25,8.92,8.92,0,0,1,1-.08,13.25,13.25,0,0,1-3.53.76l-8,.23-16,.46ZM508.25,240.88l.09,4.33c0-33.66-.07-67.31-.1-101.21q0-25.42-.05-51c-.17-8.58.41-17-.64-25.91a62.67,62.67,0,0,0-9-24.82c.85,1.65.85,1.86.15.9a71.33,71.33,0,0,0-4.44-6,63.48,63.48,0,0,0-26.85-19.54c-6.78-1.9-11.29-2.38-19.38-2.37-2.77,0-3.43.15-2,.35a106.73,106.73,0,0,1,10.6,1.36,63.12,63.12,0,0,1,21.51,8.93,60.47,60.47,0,0,1,22.51,27.85c3.4,8.41,4.41,17.4,4.21,26.72q0,14,0,28.06c0,18.76.05,37.59.08,56.3,0,24,.09,51.27.13,71.46.24,59.88.48,120.58.75,188.74-.11,7.36.29,14.79-.2,22a61.43,61.43,0,0,1-5.39,20.55A60.79,60.79,0,0,1,447,502.81c3-.62,1.2-.44-7.33-.66L392.35,502l-71.61.07L88,501.9a9.22,9.22,0,0,1-1.17-.11l11.84-.06,291.67-.25,23.42.15c11.66-.07,23.52.19,35.13-.17a59.44,59.44,0,0,0,32-11.62c-1.77,1-.64.26-5.86,3.18a58.86,58.86,0,0,1-24.15,7.09c-8.82.34-18.85-.29-28.38-.4l21.33-.23c2.75,0,4.88-.26,7-.33l5.65-.83a68.57,68.57,0,0,0,10.17-2.92,57.42,57.42,0,0,0,12.46-6.53c2.95-1.75,9.67-7.73,13.6-13.49A57.34,57.34,0,0,0,503.16,447c.4-5.44.17-11.68.19-17.64s-.07-12-.1-17.88c-.25-23.4-.48-44.3-.57-53-.12-4.78-.29-12.73-.3-20.21,0-34.44,0-69.29,0-103.85,0-62.31-.66-109.39-1.4-93.09-.18,3.87-.42,1.88-.66-3.6h0c0-.13,0-.26,0-.4-.46-10.58-.92-33.39-1-54,.06-8-.1-13.76-1.27-19.19A56.67,56.67,0,0,0,493,50.33a50.81,50.81,0,0,0-12.8-15.59c-7.82-6.29-11.73-6.91-13.17-7.56-1.17-.37,4.56,2.66-.64.28-11.72-4.26-14.78-3.16-11.16-2.72a55,55,0,0,1,23.41,12,49.32,49.32,0,0,0-19.24-9.92,51.25,51.25,0,0,1,36,43.94c.05,2.11.27,3.71.25,6.1s0,4.47,0,6.51c0,4.08,0,7.59,0,10.13-.12,10.63-.2,21.85-.26,33.4l-10.08,0,4.8-.61c-17.57-.11-36.23-.13-47.67-.31-16.11-.25-32.62-.26-48.16-.14-7.82.06-10.45.34-15.41.52l1.47.14c-14.81-.08-33.51-.09-43.65-.27-24.23-.41-63.59-.54-94-.22-4.91.05-12,.05-18,.05-31.44,0-63,0-94.29,0-27.15,0-54,.16-81.12.19H31.53c0-5.38,0-10.77,0-16.12,0-11.48,0-22.87,0-34A47.27,47.27,0,0,1,67.75,29.7a42.83,42.83,0,0,1,9.33-1.26c1.38-.12,3.52-.11,5.58-.1h6.11l24.42,0,98.6-.14,19.28,0c40.93.51,53.11-.2,79.07-.3,10.35,0,14.27-.41,17-.64,2.22-.18-6-.4-2-.57,10-.43,40.34-.89,33.08-1.25C349,25,368,24.84,384,24.55l-48.72-.32C385.46,23.91,355,23,416.38,22.8l-20.6-.14,49.55-2.09h-103c0-.28,8.25-.62-1.59-.84-26.19-.59-76.84-.31-113.6-.26-30.45,0-52.72,0-66.27-.25-14.74-.29-32.3-.33-56-.33l-18,0c-3,0-6.09-.07-8.94,0a54.28,54.28,0,0,0-8.31.76l-.09-.13c8-1.34,17.34-.72,26.36-.9L123,18.56l54.25-.11-68-.11H78.79a64.66,64.66,0,0,0-9.45.86A57,57,0,0,0,22.07,71.28c-.43,12.89-.14,26.74-.25,40-.06,42.26-.75,96.79-1.3,71.76l-1.14-70.85c0-3.2,0-15.22,0-23.17l.33,3c.07-8.76-.47-16.79.44-24.62A59.54,59.54,0,0,1,29,43a59.88,59.88,0,0,0-8.3,19.36,54.34,54.34,0,0,0-1.34,9.21c-.3,1-.59,3-.73,2.16-.2-1.18-.59,1.3-.75-.61A31.35,31.35,0,0,1,18.15,66,56.36,56.36,0,0,1,24,46.92,61.38,61.38,0,0,1,40.53,26.59a67,67,0,0,1,15.2-9.11l4.35-1.76c1.73-.54,3.77-1.05,6.22-1.71,4.93-1,11.81-1.49,20.93-1.32,17.14,0,41.18-.14,47.39-.3,7.84-.2.76-.49-.09-.82l14.12-.12L84.9,11.39,80,11.76c-30.45-.54-56,20.58-62.74,47.3A66.52,66.52,0,0,0,15.33,69.3c-.2,3.5-.37,7-.3,10.32,0,6.75,0,13.6,0,20.61,0,14,.07,28.7.11,44.57-.12-6.12-.18-8.94-.24-12.38,0,15.28-.09,28.14-.12,39-.28,4.9-.54,6.61-.76,14.6,0,4.21-.19,21.89-.25,29.24-.05,56.84-.1,109.15-.15,164,0,13.39,0,28.38,0,39.86q.05,11.16.11,22.62a66,66,0,0,0,4.68,24A65.32,65.32,0,0,0,52.43,501,64.41,64.41,0,0,0,77,506.59c8.18.17,16,0,24,.05l47.2-.12,228.75-.88c27.52-.16,67.08-.23,59.84-.85-2-.17-.41-.26,6.05-.29,6.28-.2,18.92.31,34.81-9a62.23,62.23,0,0,0,29.58-43.63c1.38-8.83.72-17.43.88-26V374.31q0-51.58,0-103.14C508.13,261,508.19,251,508.25,240.88ZM71.1,25a58.8,58.8,0,0,1,8.39-.65l9.95,0,19.9,0,39.79.08,79.58.16-3.32.2-26.05-.1L156,24.79,83,24.83c-4.4,0-7,.06-10,.22l-4.21.52-4.2.95A45.52,45.52,0,0,1,71.1,25ZM19.87,453.79c-1.87-8.71-1.17-18-1.39-27.82,0-8,.07-21.36.14-44.53.09,20.43.12,27.45.16,34.47l0-1.07c0-14.53,0-29.06,0-46.22.11,22.63.22,45.43.32,65.22,0,5,0,9.71.31,14.1.35,2.19.61,4.33,1,6.38s1,4,1.55,5.87A58.47,58.47,0,0,0,28.35,474,59.74,59.74,0,0,1,19.87,453.79Zm221.76-318.2L390,135.41c3.81,0,7.8.11,11.91.11,11.9,0,23.9,0,35.86,0a12.09,12.09,0,0,0-3.47-.43c-8.23-.34-18.12-.66-27.93-1,18.48-.31,18.27-.31,30.93,0,1.83.05,6.59.08,10.3.1,13.26,0,33.57-.09,47.69-.29,0,.69,0,1.4,0,2.1l-20,0c-7.5,0-15,.06-22.14.11l-34.35.26c3.1-.56-3.77-.7-27.81-.69-12.16,0-24.33.06-36.42.05q-59.23,0-118.38-.11a3.3,3.3,0,0,1-.6-.08C237.56,135.62,239.54,135.6,241.62,135.59Zm-38.88.08c-9.25.11-18,.24-28,.32-4.09,0-10.87,0-22.65-.11l17.53-.12-.54,0-23.5,0C168.61,135.47,192,135.43,202.75,135.67ZM31.53,133.6c16.15.18,29.16.55,19.67.86-5.48.18-12.38.34-19.67.5Q31.53,134.27,31.53,133.6Zm.24,4.85h0ZM78.92,489l-3.63-.19a44.82,44.82,0,0,1-7-1.06,47.18,47.18,0,0,1-35.53-36.35l-.67-4.42-.25-4.48,0-11.41q0-46.38,0-92.62c-.08-53.38-.17-106.13-.25-159.51,0-10.47,0-21.13,0-31.83,12.53,0,25.22-.06,37.58-.07,19.69,0,22.25-.15,12.81-.45-2.83-.09-.51-.23-.54-.35,6.78,0,16,0,19.83,0,8.34.13,13.94.32,19.28.46l58.51-.49c3,0,6.38-.07,7.62-.13,12.64-.54-18.26-1.23-50.51-1.22-34.85,0-70-.06-104.56-.14q0-3,0-6.05l13.76.06c2.49.21,3.36.4,7.43.57,2.13.09,11.13.21,14.87.19,28.91-.16,55.51.13,83.42.11,6.81,0,14.43,0,20.27,0,30.28-.24,63.91-.22,95.53-.37,39.61-.19,79.4-.34,116.33-.66,14-.12,34.12-.17,30.43-.64-2-.25,3.14-.27,21.17-.2,4.4,0,9.22,0,13.85,0h46.66c-.14,34.92-.11,72.61-.13,108.8.06,33.4.13,67.47.2,104.83-.72-4-1.58-43.44-1.71,54.12l-.81-9.43c0,8.63-.06,17.41-.09,26.06,0,4.32,0,8.62,0,12.85q0,3.17,0,6.3l-.25,4.93a46.95,46.95,0,0,1-46.9,42.42l-46.88.1c-15.37.08-20.54.45-30.3.69l2.9.19-85.84-.36c-47.64-.55-125-.72-184.91-.29L83.58,489ZM6,66.71c-.48,8.53.26,15.05.53,22.47.31,6.33.39,22,.34,51.07-.06,69.37-.13,139.8-.2,209.7,0,31.71-.22,62.75-.54,82.76-.41,9.34.1,19,.76,22.63.6,3.79,0,2.88-1.26-4.54A64.31,64.31,0,0,1,5,443.35c-.16-3.23-.09-6-.14-9.07-.21-37.5-.43-75.36-.66-115l.61-37.91c0-7.58,0-25.66,0-39-.16.06-.35-4.49-.46,1.07-.4,18.56-.59,13.52-.6-25.2,0-25.17-.07-51.17-.11-76.66,0-12.74,0-25.36,0-37.67l.08-18.23q0-4.49.06-8.91a103.22,103.22,0,0,1,.67-10.4c1.26-11.4,7-23.43,6.28-21.24A76.58,76.58,0,0,0,6,66.71ZM447.81,509.53a67.38,67.38,0,0,0,27.93-6,70.87,70.87,0,0,1-16.48,5.73,80.14,80.14,0,0,1-9,1.19l-4.6.23-4.17,0-34.41.07c-23.61,0-48.37,0-73.07-.25l-43.23.11c-19.05.28-35.52.6-46.08.94-10.11.32-24.78.48-50.44.37-30.21-.12-74.54.1-82.33-.61-1.89-.17-10.4-.33-20.49-.49l-7.78-.12c-2.62,0-5.23,0-8.28-.29a66.35,66.35,0,0,1-15.73-2.86c-5.63-1.91-8.53-3.35-5.92-2.45,5.49,2.31,16,4,20.88,4,4.05.27,7.44.18,11,.18l10.45,0,20.62-.06,40.21-.12,77-.26c33.5-.14,60.89-.41,102.15-.26l89,0C432.76,508.88,439.23,509.41,447.81,509.53ZM74.43.45A42,42,0,0,0,68,1,49.91,49.91,0,0,1,75.26.17l4-.17h49.8c65.82.11,134-.12,197.74.36C386.68.82,407.88,1.84,360,2.44l-31.85.17-91.17-.23,10.23-.45L236.93,2l-83.44-.92L111.77.65,90.9.42,80.47.3C78.92.24,76.48.38,74.43.45ZM222.76,142.09c-2.69-.08-4.16-.2-2.9-.29,2.69-.19,7.52-.37,9.76-.47,28.75-.13,55.3-.23,80.79-.38,17-.1,31-.3,52-.19,14.44.08,31.65,0,45.24,0,3.88.28,7.35.55,11.47.82,3.82.25,8.33.49,13.07.77-20.45,0-45.7.28-70.82-.1-3.77-.06-18,0-22,.08-9.69.21-18.06.45-23.43.7-5.14.24-12.6.36-25.65.28-15.37-.09-37.91.07-41.87-.46C246.47,142.56,231.08,142.34,222.76,142.09Zm-148-74.91a11.54,11.54,0,0,0-2.81,2c-5.42,5.51-7,17.15-3,23.86,3.91,6.41,15,7.62,21.62,6.35,7.84-1.52,13.09-9.25,12.71-17.28C102.69,68.35,82.81,57,74.76,67.18ZM95.07,76c2.77,4.14,3.15,9.12.31,13.35a8.78,8.78,0,0,1-3.88,3.28,10.85,10.85,0,0,0,4.5-7.5,14.44,14.44,0,0,0-9.43-15.27c0-.1,0-.24,0-.34A18,18,0,0,1,95.07,76Zm-6.83,2c7,7.82-6.7,15.2-9.95,6.49a13.82,13.82,0,0,1-.52-1.87,34.14,34.14,0,0,0,7.08,4.07A3,3,0,0,0,89.34,84c.07-4.28-2.23-6.7-5.46-8.26A10.86,10.86,0,0,1,88.24,78Zm35.37-10.78a11.54,11.54,0,0,0-2.81,2c-5.42,5.51-7,17.15-3,23.86,3.91,6.41,15,7.62,21.62,6.35,7.84-1.52,13.09-9.25,12.71-17.28C151.54,68.35,131.67,57,123.61,67.18Zm21.24,18a13,13,0,0,0-.26-5,3.87,3.87,0,0,0,.22-.36,4.38,4.38,0,0,0,.26-1.46,11.23,11.23,0,0,1-.84,11.05,8.78,8.78,0,0,1-3.88,3.28A10.85,10.85,0,0,0,144.85,85.14Zm-8.75,1.65c.12.08.2.18.33.26l0,0c-3,2.09-7.61,2-9.33-2.6a13.82,13.82,0,0,1-.52-1.87,34.14,34.14,0,0,0,7.08,4.07A3.17,3.17,0,0,0,136.1,86.78Zm36.37-19.6a11.54,11.54,0,0,0-2.81,2c-5.42,5.51-7,17.15-3,23.86,3.91,6.41,15,7.62,21.62,6.35,7.84-1.52,13.09-9.25,12.71-17.28C200.4,68.35,180.52,57,172.47,67.18ZM192.78,76a12.25,12.25,0,0,1,2,8.51,2.94,2.94,0,0,0-1.05-.45,14.47,14.47,0,0,0-9.48-14.19c0-.1,0-.24,0-.34A18,18,0,0,1,192.78,76ZM81.61,212.73c5.27.12,2.65.67,7,.86l-4.18.19c1.38.17,3,.29,2.21.57-.62.22,2,.49,2.84.75.35.1-.36.23-.17.34a2.58,2.58,0,0,0,1.46.38c2.23.06,3.28.49,6.79.18.3,0,1.16,0,1.65,0,5.74.16,11.2.09,16.9-.06,3.62-.1,7.76-.09,11.63-.08,4.58,0,9.11.13,13.7.15,5.29,0,10.61,0,15.92,0,1,0,2.21,0,3,0a139.9,139.9,0,0,0,15.88-.17c1.71-.14,4.87-.15,7.37-.21l-.25.11a13.49,13.49,0,0,0,2.6.41,75.06,75.06,0,0,0,8.13-.11c1.93-.14,5.08-.16,8-.25l-.81-.48c8.38-.08,5-.6,4.65-1,3.21,0,6.13.13,9,.12,4.48,0,9.24,0,13.14-.26.87-.07,3.07,0,4.47,0s2.57-.14,3.84-.21l-2.25-.27c2.68-.2,4.05-.45,1.56-.78-.57-.08.08-.21,0-.32-.32-.28-1.44-.59-6.7-.66-2.74,0-5.94-.68-5-1,1.4-.45-2.64-.86-8-.84-3,0-6,0-8.92,0a11.27,11.27,0,0,1-1.74-.18,92,92,0,0,0-10.39-.45c-.63,0-1.43,0-1.74.08a16.51,16.51,0,0,1-5.22,0c1.66-.28,3.33-.54,4.72-.8.53-.1.41-.23.59-.34-2,0-4,0-6.05,0-.69,0-1.37.1-2,.09l-25-.15c-.35,0-.69,0-1,0,0,0,.06-.06.1-.06l20-.09c2,0,4.09,0,6.15,0,4.06,0,5.22-.1,4.7-.55l5.8.21c1.21,0,2.47.08,3.74.09,5.85,0,11.06.22,16.21.45,1.73.08,4.07.05,6.14.08,3.21,0,6.47.05,9.63.11,5,.09,7-.07,6-.49a13.39,13.39,0,0,1-1.68-1c-2.43,0-4-.19-3.4-.5l-17.5-.13.37.06c-.87,0-1.73.11-2.6.11H195.15c-.78,0-1.59,0-2.34,0-3,.06-3.91,0-3.57-.16.62-.38-2.78-.41-5.14-.51-6.24-.26-13-.38-19.64-.53-5.34-.12-11-.1-16.13-.3-1,0-2.27,0-3.42,0-4.71,0-9.2.22-14.08.09a20.14,20.14,0,0,0-2.51.15,4.86,4.86,0,0,0-1.25.46l-3.35.07,1.06.15c-2.72,0-5-.11-7.32-.1s-4.48.1-7,.15l-.42-.22-5.47,0,1.21.07c-.07.19-.68.37,0,.49s2.6.17,4.07.18a10,10,0,0,1,2.71.18c.33.12,2.42.21,3.73.31,3.22.25,2.16.58,2.37.89.07.11-.1.22-.19.37l-2.68.14,4.44.2-.26-.2c.68,0,1.71,0,2,0,2.14.22,4.47.44,6.08.68,2.15.33-2.53.74-6.16.78-4.59,0-9.27,0-13.92,0-1.91,0-3.82,0-5.84.06l9.32.14s0,.06,0,.09c-1,0-2.07,0-3.09,0a36.76,36.76,0,0,0-4.81.2,46.18,46.18,0,0,1-5.69.15,78.35,78.35,0,0,0-9.75.15c-.85.13-.14.34-.14.51H79.13l4.25,1.26ZM148,208.22l.09,0-3-.09c2,0,3.13-.11,3.82-.09,1.69.06,3.16.17,4.72.25a73.76,73.76,0,0,1-9.65-.07Zm-36.58,5.4.68.1a13.63,13.63,0,0,1-1.84.22c-2,0-4.17,0-6.26,0-1.25,0-2.48,0-3.72,0-.74,0-1.49,0-2.24.06l-.29-.12ZM120,200.83c-1.26-.43-2.43-.87-3.38-1.3-.16-.07.76-.19,1.56-.25,4-.29,8.58-.1,12.9-.1,3.32,0,3.76.12,2.16.36-.48.07-.09.18-.09.28,1.14,0,2.7,0,3.35,0,1.41-.11,2.35-.26,3.25-.37l9.88.39a12.13,12.13,0,0,1,1.29.1c2.13.43-3.08,1-8.53,1-6,0-12,0-18,.12A18.71,18.71,0,0,1,120,200.83Zm36.53,2.53c-.21-.07,0-.17.49-.23a40.81,40.81,0,0,0,4.33-.58c.67-.42,4.48-.29,7.07-.37a18.45,18.45,0,0,1,4.33.23,37.75,37.75,0,0,0,4,.56c.67.07,3.07.11,3.71.06,4.24-.3,8.5-.06,12-.08-.8.22-1.56.42-2.21.62s-1.28.43-1.94.66c-2.29,0-5.2-.09-7.64,0-3.54.09-5.89-.07-8.77-.15-4.3-.12-8.79-.2-13.64-.31C157.81,203.66,157,203.52,156.54,203.37Zm-70.08-2.85c-4.11-.36-2.29-1,2.85-1.24,5.47-.29,11.33-.15,17-.21,1.49,0,3,0,4.56,0l.51.11L97,200.27l-.88-.06.88.27c-2.78.05-5.28.11-7.83.14C88.33,200.63,87.12,200.57,86.46,200.51Zm149,50.89c-5.27-.12-2.66-.67-7-.86l4.18-.19c-1.38-.17-3-.29-2.21-.57.62-.22-2-.49-2.84-.75-.35-.1.36-.23.17-.34a2.58,2.58,0,0,0-1.46-.38c-2.23-.06-3.28-.49-6.79-.18-.3,0-1.16,0-1.65,0-5.74-.16-11.2-.09-16.9.06-3.62.1-7.76.09-11.63.08-4.58,0-9.11-.13-13.7-.15-5.29,0-10.61,0-15.92,0-1,0-2.21,0-3,0a139.9,139.9,0,0,0-15.88.17c-1.71.14-4.87.15-7.37.21l.25-.11a13.49,13.49,0,0,0-2.6-.41,75.06,75.06,0,0,0-8.13.11c-1.93.14-5.08.16-8,.25l.81.48c-8.38.08-5,.6-4.65,1-3.21,0-6.13-.13-9-.12-4.48,0-9.24,0-13.14.26-.87.07-3.07,0-4.47,0s-2.57.14-3.84.21l2.25.27c-2.68.2-4.05.45-1.56.78.57.08-.08.21,0,.32.32.28,1.44.59,6.7.66,2.74,0,5.94.68,5,1-1.4.45,2.64.86,8,.84,3,0,6,0,8.92,0a11.26,11.26,0,0,1,1.74.18,92,92,0,0,0,10.39.45c.63,0,1.43,0,1.74-.08a16.51,16.51,0,0,1,5.22,0c-1.65.28-3.33.54-4.71.8-.53.1-.41.23-.59.34,2,0,4,0,6.05,0,.69,0,1.37-.1,2-.09l25,.15c.35,0,.69,0,1,0,0,0-.06.06-.1.06l-20,.09c-2,0-4.09,0-6.15,0-4.06,0-5.22.1-4.7.55l-5.8-.21c-1.21,0-2.47-.08-3.74-.09-5.85,0-11.06-.22-16.21-.45-1.73-.08-4.07-.05-6.14-.08-3.21,0-6.47-.05-9.63-.11-5-.09-7,.07-6,.49A13.39,13.39,0,0,1,81,257c2.43,0,4,.19,3.4.5l17.5.13-.37-.06c.87,0,1.72-.11,2.6-.11h17.71c.78,0,1.59,0,2.34,0,3-.06,3.91,0,3.57.16-.62.38,2.77.41,5.14.51,6.24.26,13,.38,19.64.53,5.34.12,11,.1,16.13.3,1,0,2.27,0,3.42,0,4.71,0,9.2-.22,14.08-.09a20.15,20.15,0,0,0,2.51-.15,4.86,4.86,0,0,0,1.25-.46l3.35-.07-1.06-.15c2.72,0,5,.11,7.32.1s4.48-.1,7-.15l.42.22,5.47,0-1.21-.07c.07-.19.68-.37,0-.49s-2.6-.17-4.07-.18a10,10,0,0,1-2.71-.18c-.33-.12-2.42-.21-3.73-.31-3.22-.25-2.16-.58-2.37-.89-.07-.11.1-.22.19-.37l2.68-.14-4.44-.2.26.2c-.68,0-1.71,0-2,0-2.14-.22-4.48-.44-6.08-.68-2.15-.33,2.53-.74,6.16-.78,4.59,0,9.27,0,13.92,0,1.91,0,3.82,0,5.84-.06l-9.32-.14v-.09c1,0,2.07,0,3.09,0a36.76,36.76,0,0,0,4.81-.2,46.17,46.17,0,0,1,5.69-.15,78.34,78.34,0,0,0,9.75-.15c.85-.13.14-.34.14-.51h8.84l-4.25-1.26Zm-66.36,4.51-.09,0,3,.09c-2,0-3.13.11-3.82.09-1.69-.06-3.16-.17-4.72-.25a73.76,73.76,0,0,1,9.65.07Zm36.58-5.4-.68-.1a13.63,13.63,0,0,1,1.84-.22c2,0,4.17,0,6.26,0,1.25,0,2.48,0,3.72,0,.74,0,1.49,0,2.24-.06l.29.12Zm-21.86,14.08c.48-.07.09-.18.09-.28-1.14,0-2.7,0-3.35,0-1.41.11-2.35.26-3.25.37l-9.88-.39a12.12,12.12,0,0,1-1.29-.1c-2.13-.43,3.08-1,8.53-1,6,0,12,0,18-.12a18.7,18.7,0,0,1,4.38.2c1.26.43,2.43.87,3.38,1.3.16.07-.76.19-1.56.25-4,.29-8.58.1-12.9.1C182.63,264.94,182.19,264.82,183.79,264.59Zm-59.13-3.41c.8-.22,1.56-.42,2.21-.62s1.28-.43,1.94-.66c2.29,0,5.2.09,7.64,0,3.54-.09,5.89.07,8.77.15,4.3.12,8.79.2,13.64.31.38.08,1.19.23,1.65.38.21.07,0,.17-.49.23a40.82,40.82,0,0,0-4.33.58c-.67.42-4.47.29-7.07.37a18.45,18.45,0,0,1-4.33-.23,37.75,37.75,0,0,0-4-.56c-.67-.07-3.07-.11-3.71-.06C132.37,261.4,128.11,261.16,124.66,261.18ZM220,263.87l.88.06-.88-.27c2.78-.05,5.28-.11,7.83-.14.86,0,2.07,0,2.73.1,4.11.36,2.29,1-2.85,1.24-5.47.29-11.33.15-17,.21-1.49,0-3,0-4.56,0l-.51-.11ZM235,300.34l1.22-.08c-3.65-.12-1.84-.67-4.82-.86l2.9-.19c-1-.17-2.08-.29-1.53-.57s-1.37-.49-2-.75c-.24-.1.25-.23.12-.34a1.42,1.42,0,0,0-1-.38c-1.54-.06-2.27-.49-4.7-.18a10.57,10.57,0,0,1-1.15,0c-4-.16-7.76-.09-11.7.06-2.5.1-5.37.09-8.05.08-3.17,0-6.31-.13-9.48-.15-3.66,0-7.35,0-11,0-.71,0-1.53,0-2.11,0a67.13,67.13,0,0,0-11,.17c-1.19.14-3.37.15-5.1.21l.17-.11a6.76,6.76,0,0,0-1.8-.41,36,36,0,0,0-5.63.11c-1.34.14-3.52.16-5.57.25l.56.48c-5.8.08-3.46.6-3.22,1-2.22,0-4.25-.13-6.23-.12-3.1,0-6.39,0-9.1.26-.6.07-2.13,0-3.1,0s-1.78.14-2.66.21l1.56.27c-1.85.2-2.81.45-1.08.78.4.08-.05.21,0,.32.22.28,1,.59,4.64.66,1.9,0,4.12.68,3.45,1-1,.45,1.83.86,5.53.84,2.05,0,4.13,0,6.17,0a5.51,5.51,0,0,1,1.2.18,44.29,44.29,0,0,0,7.19.45,11,11,0,0,0,1.2-.08,8,8,0,0,1,3.62,0c-1.15.28-2.3.54-3.26.8-.37.1-.28.23-.41.34,1.4,0,2.8,0,4.19,0,.48,0,.95-.1,1.39-.09l17.34.15c.24,0,.47,0,.7,0,0,0,0,.06-.07.06l-13.84.09c-1.41,0-2.83,0-4.26,0-2.81,0-3.61.1-3.25.55l-4-.21c-.84,0-1.71-.08-2.59-.09-4.05,0-7.66-.22-11.22-.45-1.2-.08-2.82-.05-4.25-.08-2.22,0-4.48-.05-6.67-.11-3.49-.09-4.85.07-4.18.49a9.26,9.26,0,0,1,1.16,1c1.68,0,2.78.19,2.35.5l12.12.13-.26-.06c.6,0,1.19-.11,1.8-.11h12.26c.54,0,1.1,0,1.62,0,2.11-.06,2.71,0,2.47.16-.43.38,1.92.41,3.56.51,4.32.26,9,.38,13.6.53,3.7.12,7.63.1,11.17.3.68,0,1.57,0,2.37,0,3.26,0,6.37-.22,9.75-.09a9.73,9.73,0,0,0,1.74-.15,2.82,2.82,0,0,0,.87-.46l2.32-.07-.74-.15c1.89,0,3.49.11,5.06.1s3.1-.1,4.82-.15l.29.22,3.79,0-.84-.07c0-.19.47-.37,0-.49a20.79,20.79,0,0,0-2.82-.18,4.85,4.85,0,0,1-1.88-.18,21.59,21.59,0,0,0-2.58-.31c-2.23-.25-1.5-.58-1.64-.89,0-.11.07-.22.13-.37l1.86-.14-3.07-.2.18.2c-.47,0-1.19,0-1.38,0-1.48-.22-3.1-.44-4.21-.68-1.49-.33,1.75-.74,4.27-.78,3.17,0,6.42,0,9.64,0,1.32,0,2.65,0,4-.06l-6.45-.14v-.09c.71,0,1.43,0,2.14,0a17.69,17.69,0,0,0,3.33-.2,22.19,22.19,0,0,1,3.94-.15,37.61,37.61,0,0,0,6.75-.15c.58-.13.09-.34.09-.51h6.12Zm-44.71,4.42-.06,0,2,.09c-1.38,0-2.17.11-2.65.09-1.17-.06-2.19-.17-3.27-.25a35.39,35.39,0,0,1,6.68.07Zm25.32-5.4-.47-.1a6.71,6.71,0,0,1,1.27-.22c1.42,0,2.89,0,4.34,0,.86,0,1.72,0,2.58,0,.51,0,1,0,1.55-.06l.2.12Zm-15.13,14.08c.33-.07.06-.18.06-.28-.79,0-1.87,0-2.32,0-1,.11-1.63.26-2.25.37l-6.84-.39a5.87,5.87,0,0,1-.89-.1c-1.48-.43,2.13-1,5.9-1,4.15,0,8.34,0,12.46-.12a9,9,0,0,1,3,.2,21.47,21.47,0,0,1,2.34,1.3c.11.07-.53.19-1.08.25a88.19,88.19,0,0,1-8.93.1C199.64,313.8,199.34,313.68,200.44,313.44Zm-17.26-4.2a10,10,0,0,1,1.14.38c.15.07,0,.17-.34.23a20.17,20.17,0,0,0-3,.58c-.46.42-3.1.29-4.89.37a8.93,8.93,0,0,1-3-.23,18.72,18.72,0,0,0-2.74-.56,19.55,19.55,0,0,0-2.57-.06,80,80,0,0,1-8.28.08c.55-.22,1.08-.42,1.53-.62s.89-.43,1.34-.66c1.59,0,3.6.09,5.29,0,2.45-.09,4.08.07,6.07.15C176.71,309.06,179.82,309.14,183.18,309.25Zm42.34,3.48.61.06-.61-.27c1.92-.05,3.65-.11,5.42-.14a16.06,16.06,0,0,1,1.89.1c2.85.36,1.59,1-2,1.24-3.79.29-7.84.15-11.75.21-1,0-2.1,0-3.16,0l-.35-.11ZM101.94,379.8l-.37-.06c.87,0,1.72-.11,2.6-.11h17.71c.78,0,1.59,0,2.34,0,3-.06,3.91,0,3.57.16-.62.38,2.77.41,5.14.51,6.24.26,13,.38,19.64.53,5.34.12,11,.1,16.13.3,1,0,2.27,0,3.42,0,4.71,0,9.2-.22,14.08-.09a20.15,20.15,0,0,0,2.51-.15,4.86,4.86,0,0,0,1.25-.46l3.35-.07-1.06-.15c2.72,0,5,.11,7.32.1s4.48-.1,7-.15l.42.22,5.47,0-1.21-.07c.07-.19.68-.37,0-.49s-2.6-.17-4.07-.18a10,10,0,0,1-2.71-.18c-.33-.12-2.42-.21-3.73-.31-3.22-.25-2.16-.58-2.37-.89-.07-.11.1-.22.19-.37l2.68-.14-4.44-.2.26.2c-.68,0-1.71,0-2,0-2.14-.22-4.48-.44-6.08-.68-2.15-.33,2.53-.74,6.16-.78,4.59,0,9.27,0,13.92,0,1.91,0,3.82,0,5.84-.06l-9.32-.14v-.09c1,0,2.07,0,3.09,0a36.76,36.76,0,0,0,4.81-.2,46.17,46.17,0,0,1,5.69-.15,78.34,78.34,0,0,0,9.75-.15c.85-.13.14-.34.14-.51h8.84l-4.25-1.26,1.77-.08c-5.27-.12-2.66-.67-7-.86l4.18-.19c-1.38-.17-3-.29-2.21-.57.62-.22-2-.49-2.84-.75-.35-.1.36-.23.17-.34a2.58,2.58,0,0,0-1.46-.38c-2.23-.06-3.28-.49-6.79-.18-.3,0-1.16,0-1.65,0-5.74-.16-11.2-.09-16.9.06-3.62.1-7.76.09-11.63.08-4.58,0-9.11-.13-13.7-.15-5.29,0-10.61,0-15.92,0-1,0-2.21,0-3,0a139.9,139.9,0,0,0-15.88.17c-1.71.14-4.87.15-7.37.21l.25-.11a13.49,13.49,0,0,0-2.6-.41,75.06,75.06,0,0,0-8.13.11c-1.93.14-5.08.16-8,.25l.81.48c-8.38.08-5,.6-4.65,1-3.21,0-6.13-.13-9-.12-4.48,0-9.24,0-13.14.26-.87.07-3.07,0-4.47,0s-2.57.14-3.84.21l2.25.27c-2.68.2-4.05.45-1.56.78.57.08-.08.21,0,.32.32.28,1.44.59,6.7.66,2.74,0,5.94.68,5,1-1.4.45,2.64.86,8,.84,3,0,6,0,8.92,0a11.26,11.26,0,0,1,1.74.18,92,92,0,0,0,10.39.45c.63,0,1.43,0,1.74-.08a16.51,16.51,0,0,1,5.22,0c-1.65.28-3.33.54-4.71.8-.53.1-.41.23-.59.34,2,0,4,0,6.05,0,.69,0,1.37-.1,2-.09l25,.15c.35,0,.69,0,1,0,0,0-.06.06-.1.06l-20,.09c-2,0-4.09,0-6.15,0-4.06,0-5.22.1-4.7.55l-5.8-.21c-1.21,0-2.47-.08-3.74-.09-5.85,0-11.06-.22-16.21-.45-1.73-.08-4.07-.05-6.14-.08-3.21,0-6.47-.05-9.63-.11-5-.09-7,.07-6,.49a13.39,13.39,0,0,1,1.68,1c2.43,0,4,.19,3.4.5Zm104.86-7.47c2,0,4.17,0,6.26,0,1.25,0,2.48,0,3.72,0,.74,0,1.49,0,2.24-.06l.29.12-13.67.19-.68-.1A13.63,13.63,0,0,1,206.8,372.33ZM173,378.08l-4,0-.09,0,3,.09c-2,0-3.13.11-3.82.09-1.69-.06-3.16-.17-4.72-.25A73.76,73.76,0,0,1,173,378.08Zm10.75,8.65c.48-.07.09-.18.09-.28-1.14,0-2.7,0-3.35,0-1.41.11-2.35.26-3.25.37l-9.88-.39a12.12,12.12,0,0,1-1.29-.1c-2.13-.43,3.08-1,8.53-1,6,0,12,0,18-.12a18.7,18.7,0,0,1,4.38.2c1.26.43,2.43.87,3.38,1.3.16.07-.76.19-1.56.25-4,.29-8.58.1-12.9.1C182.63,387.08,182.19,387,183.79,386.73Zm-59.13-3.41c.8-.22,1.56-.42,2.21-.62s1.28-.43,1.94-.66c2.29,0,5.2.09,7.64,0,3.54-.09,5.89.07,8.77.15,4.3.12,8.79.2,13.64.31.38.08,1.19.23,1.65.38.21.07,0,.17-.49.23a40.82,40.82,0,0,0-4.33.58c-.67.42-4.47.29-7.07.37a18.45,18.45,0,0,1-4.33-.23,37.75,37.75,0,0,0-4-.56c-.67-.07-3.07-.11-3.71-.06C132.37,383.54,128.11,383.3,124.66,383.32ZM220,386l.88.06-.88-.27c2.78-.05,5.28-.11,7.83-.14.86,0,2.07,0,2.73.1,4.11.36,2.29,1-2.85,1.24-5.47.29-11.33.15-17,.21-1.49,0-3,0-4.56,0l-.51-.11Zm16.17,36.39c-3.65-.12-1.84-.67-4.82-.86l2.9-.19c-1-.17-2.08-.29-1.53-.57s-1.37-.49-2-.75c-.24-.1.25-.23.12-.34a1.42,1.42,0,0,0-1-.38c-1.54-.06-2.27-.49-4.7-.18a10.57,10.57,0,0,1-1.15,0c-4-.16-7.76-.09-11.7.06-2.5.1-5.37.09-8.05.08-3.17,0-6.31-.13-9.48-.15-3.66,0-7.35,0-11,0-.71,0-1.53,0-2.11,0a67.13,67.13,0,0,0-11,.17c-1.19.14-3.37.15-5.1.21l.17-.11a6.76,6.76,0,0,0-1.8-.41,36,36,0,0,0-5.63.11c-1.34.14-3.52.16-5.57.25l.56.48c-5.8.08-3.46.6-3.22,1-2.22,0-4.25-.13-6.23-.12-3.1,0-6.39,0-9.1.26-.6.07-2.13,0-3.1,0s-1.78.14-2.66.21l1.56.27c-1.85.2-2.81.45-1.08.78.4.08-.05.21,0,.32.22.28,1,.59,4.64.66,1.9,0,4.12.68,3.45,1-1,.45,1.83.86,5.53.84,2.05,0,4.13,0,6.17,0a5.51,5.51,0,0,1,1.2.18,44.29,44.29,0,0,0,7.19.45,11,11,0,0,0,1.2-.08,8,8,0,0,1,3.62,0c-1.15.28-2.3.54-3.26.8-.37.1-.28.23-.41.34,1.4,0,2.8,0,4.19,0,.48,0,.95-.1,1.39-.09l17.34.15c.24,0,.47,0,.7,0,0,0,0,.06-.07.06l-13.84.09c-1.41,0-2.83,0-4.26,0-2.81,0-3.61.1-3.25.55l-4-.21c-.84,0-1.71-.08-2.59-.09-4.05,0-7.66-.22-11.22-.45-1.2-.08-2.82-.05-4.25-.08-2.22,0-4.48-.05-6.67-.11-3.49-.09-4.85.07-4.18.49a9.26,9.26,0,0,1,1.16,1c1.68,0,2.78.19,2.35.5l12.12.13-.26-.06c.6,0,1.19-.11,1.8-.11h12.26c.54,0,1.1,0,1.62,0,2.11-.06,2.71,0,2.47.16-.43.38,1.92.41,3.56.51,4.32.26,9,.38,13.6.53,3.7.12,7.63.1,11.17.3.68,0,1.57,0,2.37,0,3.26,0,6.37-.22,9.75-.09a9.73,9.73,0,0,0,1.74-.15,2.82,2.82,0,0,0,.87-.46l2.32-.07-.74-.15c1.89,0,3.49.11,5.06.1s3.1-.1,4.82-.15l.29.22,3.79,0-.84-.07c0-.19.47-.37,0-.49a20.79,20.79,0,0,0-2.82-.18,4.85,4.85,0,0,1-1.88-.18,21.59,21.59,0,0,0-2.58-.31c-2.23-.25-1.5-.58-1.64-.89,0-.11.07-.22.13-.37l1.86-.14-3.07-.2.18.2c-.47,0-1.19,0-1.38,0-1.48-.22-3.1-.44-4.21-.68-1.49-.33,1.75-.74,4.27-.78,3.17,0,6.42,0,9.64,0,1.32,0,2.65,0,4-.06l-6.45-.14v-.09c.71,0,1.43,0,2.14,0a17.69,17.69,0,0,0,3.33-.2,22.19,22.19,0,0,1,3.94-.15,37.61,37.61,0,0,0,6.75-.15c.58-.13.09-.34.09-.51h6.12L235,422.49Zm-45.94,4.51-.06,0,2,.09c-1.38,0-2.17.11-2.65.09-1.17-.06-2.19-.17-3.27-.25a35.39,35.39,0,0,1,6.68.07Zm25.32-5.4-.47-.1a6.71,6.71,0,0,1,1.27-.22c1.42,0,2.89,0,4.34,0,.86,0,1.72,0,2.58,0,.51,0,1,0,1.55-.06l.2.12Zm-6,12.79a21.47,21.47,0,0,1,2.34,1.3c.11.07-.53.19-1.08.25a88.19,88.19,0,0,1-8.93.1c-2.3,0-2.6-.12-1.5-.36.33-.07.06-.18.06-.28-.79,0-1.87,0-2.32,0-1,.11-1.63.26-2.25.37l-6.84-.39a5.87,5.87,0,0,1-.89-.1c-1.48-.43,2.13-1,5.9-1,4.15,0,8.34,0,12.46-.12A9,9,0,0,1,209.61,434.3Zm-25.29-2.53c.15.07,0,.17-.34.23a20.17,20.17,0,0,0-3,.58c-.46.42-3.1.29-4.89.37a8.93,8.93,0,0,1-3-.23,18.72,18.72,0,0,0-2.74-.56,19.55,19.55,0,0,0-2.57-.06,80,80,0,0,1-8.28.08c.55-.22,1.08-.42,1.53-.62s.89-.43,1.34-.66c1.59,0,3.6.09,5.29,0,2.45-.09,4.08.07,6.07.15,3,.12,6.08.2,9.44.31A10,10,0,0,1,184.32,431.77Zm48.52,2.85c2.85.36,1.59,1-2,1.24-3.79.29-7.84.15-11.75.21-1,0-2.1,0-3.16,0l-.35-.11,9.92-1.11.61.06-.61-.27c1.92-.05,3.65-.11,5.42-.14A16.06,16.06,0,0,1,232.84,434.62Z"/></svg>